<?xml version="1.0" encoding="utf-8"?>
<!-- Generator: Adobe Illustrator 22.0.1, SVG Export Plug-In . SVG Version: 6.00 Build 0)  -->
<svg version="1.1" id="svg_logo" xmlns="http://www.w3.org/2000/svg" xmlns:xlink="http://www.w3.org/1999/xlink" x="0px" y="0px"
	 viewBox="0 0 371.8 58.1" style="enable-background:new 0 0 371.8 58.1;" xml:space="preserve">
<style type="text/css">
	.st0{fill:#606060;}
</style>
<g>
	<path class="st0" d="M69.6,24.4l-12.9-22c-0.6-1-1.9-1.3-2.9-0.8c-0.5,0.3-0.8,0.7-1,1.3c-0.1,0.5-0.1,1.1,0.2,1.6L59.9,16H44
		c-0.1,0-0.2,0-0.2,0c-0.7-0.1-1.4,0.3-1.8,0.9l-5.2,7.4c-0.3,0.5-0.4,1-0.3,1.5c0.1,0.5,0.4,1,0.9,1.3c0.4,0.2,0.8,0.4,1.2,0.4
		c0.7,0,1.3-0.3,1.7-0.9l4.6-6.5h17.5l3.7,6.3c0.6,1,1.9,1.3,2.9,0.8c0.5-0.3,0.8-0.7,1-1.3C70,25.4,69.9,24.9,69.6,24.4z"/>
	<path class="st0" d="M273.2,27.2L273.2,27.2c-0.9-0.1-1.6-0.9-1.6-1.8l1-17.8c0.1-0.9,0.9-1.6,1.8-1.6v0c0.9,0.1,1.6,0.9,1.6,1.8
		l-1,17.8C274.9,26.5,274.1,27.2,273.2,27.2z"/>
	<path class="st0" d="M307.7,27.1L307.7,27.1c-0.9-0.1-1.6-0.9-1.6-1.8l1-17.8c0.1-0.9,0.9-1.6,1.8-1.6v0c0.9,0.1,1.6,0.9,1.6,1.8
		l-1,17.8C309.4,26.4,308.6,27.1,307.7,27.1z"/>
	<path class="st0" d="M368.7,5.9l-0.4,0c-0.9-0.1-1.7,0.6-1.7,1.5l-0.8,14.3L346.4,6.3c0,0,0,0-0.1,0c-0.3-0.2-0.6-0.4-0.9-0.4
		l-0.4,0c-0.9-0.1-1.7,0.6-1.7,1.5l-1,18c-0.1,0.9,0.6,1.7,1.5,1.7l0.4,0c0.9,0.1,1.7-0.6,1.7-1.5l0.8-14.4l19.1,15.2
		c0.5,0.4,0.8,0.6,1.3,0.7l0.4,0c0.9,0.1,1.7-0.6,1.7-1.5l1-18C370.3,6.7,369.6,5.9,368.7,5.9z"/>
	<path class="st0" d="M304.2,7.7c-0.8-1.1-2.2-1.9-5.3-1.9c-2.5,0-5,0-7.4,0c-2.5,0-5-0.1-7.4,0c-3.6,0.2-6.2,3-6.1,6.5
		c0,3.3,2.4,5.4,6.2,5.4c3.8,0.1,7.5,0,11.3,0c1.6,0,5.1-0.2,5.1,2.3c0,3.1-3.3,3.1-5.3,3.1c-4,0-7.9,0-11.9,0c-1.3,0-2.3,0-2.6-1.6
		l0-0.1c0-0.9-0.6-1.7-1.5-1.7l-0.1,0c-0.9-0.1-1.8,0.7-1.8,1.6l0,0.7c0,0.2,0,0.3,0,0.4c0.1,2.3,1.5,4.2,3.8,4.3
		c5.4,0.2,10.7-0.1,16.1-0.1c4.2,0,7.5-2.3,7-7.6c0-4.3-4.2-5.2-7.6-5.2c-3.8,0-7.5,0-11.3,0c-1.6,0-3.4,0.6-3.4-2.3
		c0-2.1,2.1-2.1,3.3-2.1c4.1,0,8,0,12.2,0c2.5,0,3-0.1,3.7,0.3c0,0,0.1,0.1,0.2,0.2c0.1,0.1,0.1,0.2,0.1,0.3l0,1.1
		c0,0.9,0.8,1.7,1.7,1.7l0,0c0.9,0,1.7-0.8,1.7-1.7V8.9C304.6,8.4,304.5,8.1,304.2,7.7z"/>
	<path class="st0" d="M270.9,1.7l-0.1-0.1c-0.7-0.5-1.7-0.4-2.3,0.3l-2.2,3c-0.1,0.2-0.2,0.3-0.4,0.5L264.8,7
		c-3.8,4.9-7.5,9.9-11.5,15.1c-2.8-4.7-5.4-9.3-8-13.7c0,0,0,0,0-0.1l-3.7-6.2c-0.5-0.8-1.4-1-2.2-0.6l-0.2,0.1
		c-0.8,0.5-1,1.4-0.6,2.2l1.8,3.1c3.3,6.1,6.8,12.1,10.3,18c1.6,2.8,2.6,2.9,4.5,0.4c2.8-3.7,5.6-7.4,8.4-11.2c1-1.3,2-2.7,3-4
		c0,0,0.1-0.1,0.1-0.1l4.5-6.1C271.8,3.3,271.6,2.3,270.9,1.7z"/>
	<path class="st0" d="M206.3,22.1l0.2-2.2c0-0.3,0-1-0.1-1.5c-0.1-0.7-0.4-1.5-1-2.6c-0.2-0.4-1.1-1.3-1.3-1.5
		c0.3-0.3,1-1.2,1.2-1.8c2.6-6-0.5-11-7-11c-5.4,0-10.8,0-16.2,0h-4c-0.2,0-0.5,0-0.7,0h-0.6c-0.4,0-0.7,0.1-1,0.4
		c-0.4,0.3-0.7,0.8-0.6,1.7c0,0,0,0.1,0,0.1c0,0.9,0.7,1.6,1.6,1.6h8.2c4.1,0,8.2,0,12.5,0c5.3,0.2,5.2,1.5,5.2,4
		c0,1.6-0.1,3.8-5.2,3.8c-6.8,0-13.4,0.1-20.2,0c-2.1,0-3.4,0.8-3.5,2.9c-0.2,2.1-0.4,4.2-0.5,6.3l-0.3,3.1
		c-0.1,0.9,0.6,1.7,1.5,1.8l0.3,0c0,0,0,0,0,0.1c0,0,0,0,0,0l0.2,0c0.9,0.1,1.7-0.6,1.8-1.5l0.3-3.1c0.2-1.3,0.3-2.7,0.4-4.2
		l0.1-1.5c7.5,0,14.7,0,21.8,0c2.2,0,3.3,1.3,3.3,3.4l-0.5,5c-0.1,0.9,0.6,1.7,1.5,1.8l0.5,0.1c0.9,0.1,1.7-0.6,1.8-1.5l0.1-0.9
		C206.2,23.9,206.3,23,206.3,22.1z"/>
	<path class="st0" d="M140.9,3.3L140.9,3.3c0,1,0.8,1.9,1.9,1.9l29.2,0c1,0,1.9-0.8,1.9-1.9v0c0-1-0.8-1.9-1.9-1.9l-29.2,0
		C141.8,1.4,140.9,2.3,140.9,3.3z"/>
	<path class="st0" d="M35,1.4l-0.5,0c-0.5,0-1,0.2-1.4,0.6L19.2,15.3l-12-13C6.8,1.8,6.4,1.5,5.9,1.5l-0.5,0C4.4,1.4,3.7,2,3.6,2.9
		L1.9,25.3C1.9,26.2,2.5,27,3.4,27l0.5,0c0.9,0.1,1.7-0.6,1.7-1.5L7,7.7l10.9,11.8c0.6,0.7,1.6,0.7,2.3,0.1l0.4-0.4
		c0,0,0.1-0.1,0.1-0.1L32.4,7.9L31,25.3C31,26.2,31.7,27,32.5,27l0.5,0c0.9,0.1,1.7-0.6,1.7-1.5l1.7-22.4C36.6,2.3,35.9,1.5,35,1.4z
		"/>
	<path class="st0" d="M138,1.4h-1.3c-8.5-0.1-17-0.1-25.5,0h-2.9c-0.9,0-1.6,0.7-1.6,1.6v0.5c0,0.9,0.7,1.6,1.6,1.6h12.6
		c-0.5,5.5-1,10.7-1.4,15.9l-0.4,4.2c-0.1,0.9,0.6,1.7,1.4,1.8l0.5,0c0.9,0.1,1.7-0.6,1.8-1.4l0.5-4.4c0-0.1,0-0.2,0-0.3
		c0.6-5.1,1-10.3,1.5-15.8H138c0.9,0,1.6-0.7,1.6-1.6V3.1C139.6,2.2,138.9,1.4,138,1.4z"/>
	<path class="st0" d="M71.1,22c-0.1,2.9,2.1,5,5.3,5.1c3.3,0.1,6.7,0,10,0c0,0,0,0,0,0c3.4,0,6.9,0.2,10.3-0.1
		c4.6-0.3,7.9-4.3,7.7-8.7c-0.2-4.3-3.2-6.7-8.2-6.7c-5.3,0-10.5,0-15.8,0c-2.2,0-4.5-0.3-4.5-3c0-2.6,2.1-3.6,4.5-3.6
		c6,0,12.1,0,18,0c1,0,1.8,0,2.5,0.6c0.1,0.1,0.2,0.3,0.3,0.5c0,0.1,0-0.1,0,0l0,1.5c0,0.9,0.7,1.6,1.6,1.6l0.6,0c0,0,0,0,0,0l0,0
		c0.8-0.1,1.6-0.8,1.6-1.6l0-0.5c0,0,0-0.1,0-0.1c0.2-3-1.7-5.5-4.9-5.6c-7-0.2-14-0.2-20.9,0c-4.4,0.2-7.5,3.8-7.4,7.9
		c0.1,3.7,3.2,6.1,8,6.1c5.2,0,10.3,0,15.5,0c2.6,0,4.9,0.3,4.9,3.6c0,2.7-1.6,4.3-4.8,4.3c-5.9,0.1-11.8,0-17.7,0
		c-1.3,0-2.3-0.3-2.8-1.3C75,22,75,21.8,75,21.7v-1.2c0-0.9-0.7-1.6-1.6-1.6h-0.7c-0.9,0-1.6,0.7-1.6,1.6"/>
	<path class="st0" d="M170.3,23.4h-5.5c-6.1-0.1-12.2,0-18.3,0c-1.1,0-2.3,0-3.7,0c0.2-2.9,0.4-5.3,0.6-7.9c1.5,0,2.7,0,3.8,0
		c5.9,0,11.8,0.1,17.6-0.1h3.6c0.9,0,1.6-0.7,1.6-1.6v-0.5c0-0.9-0.7-1.6-1.6-1.6h-25.1c-0.1,0-0.3,0-0.4,0.1c-2,0-3,0.7-3.2,2.8
		c-0.2,3.3-0.6,6.6-0.9,9.9c-0.1,0.7,0,1.2,0.2,1.6c0.2,0.6,0.8,1.1,1.5,1.1h0.6c0.1,0,0.1,0,0.2,0c5.4,0,10.7,0,16.1,0h12.8
		c0.9,0,1.6-0.7,1.6-1.6v-0.5C171.9,24.2,171.2,23.4,170.3,23.4z"/>
	<path class="st0" d="M335.2,5.9h-16.1c-2.9,0-5.3,2.3-5.3,5.2L312.9,22c0,2.9,2.4,5.2,5.3,5.2h16.1c2.9,0,5.3-2.3,5.3-5.2l0.8-10.8
		C340.5,8.3,338.1,5.9,335.2,5.9z M336.2,20.2c0,1.9-1.8,3.5-3.9,3.5h-11.8c-2.1,0-3.9-1.6-3.9-3.5l0.6-7.3c0-1.9,1.8-3.5,3.9-3.5
		h11.8c2.1,0,3.9,1.6,3.9,3.5L336.2,20.2z"/>
</g>
<g>
	<path class="st0" d="M13.7,47.6c-0.3,1.6-1.1,2.9-2.3,3.9c-1.3,1-2.8,1.5-4.6,1.5c-1.6,0-2.9-0.5-3.8-1.5s-1.2-2.3-1-3.8l0.4-2.2
		c0.3-1.6,1-2.9,2.3-3.9c1.2-1,2.7-1.5,4.4-1.5c1.7,0,3,0.5,4,1.5s1.3,2.3,1.1,3.8L13.7,47.6z M12.1,45.3c0.2-1.2,0-2.1-0.6-2.9
		c-0.6-0.7-1.5-1.1-2.7-1.1c-1.1,0-2.1,0.4-2.9,1.1s-1.4,1.7-1.6,2.8L4,47.6c-0.2,1.2,0,2.2,0.5,2.9c0.6,0.7,1.4,1.1,2.6,1.1
		c1.2,0,2.2-0.4,3.1-1.1c0.9-0.7,1.4-1.7,1.6-2.8L12.1,45.3z"/>
	<path class="st0" d="M22.2,43.2c1.3,0,2.3,0.5,3,1.4c0.7,0.9,0.9,2,0.7,3.4l0,0.2c-0.3,1.4-0.9,2.6-1.9,3.4c-1,0.9-2.3,1.3-3.8,1.3
		c-1.4,0-2.5-0.4-3.3-1.3c-0.7-0.9-1-2-0.8-3.4l0-0.2c0,0,0-0.1,0-0.1c0,0,0-0.1,0-0.2l0.4-2c0.3-1.8,1-3.2,1.9-4
		c1-0.8,2.3-1.2,3.9-1.3c0.9,0,1.7-0.1,2.2-0.3c0.5-0.2,0.8-0.4,0.9-0.8H27l0,0.1c-0.1,0.9-0.6,1.6-1.4,1.9
		c-0.8,0.3-1.9,0.5-3.3,0.6c-1,0-1.9,0.3-2.6,0.7c-0.7,0.4-1.1,1.1-1.2,2l0,0c0.5-0.4,1-0.8,1.7-1C20.9,43.3,21.5,43.2,22.2,43.2z
		 M21.6,44.5c-0.9,0-1.7,0.3-2.3,1c-0.6,0.7-1,1.5-1.2,2.4l0,0.2c-0.2,1-0.1,1.9,0.3,2.5c0.4,0.6,1,0.9,2,0.9c0.9,0,1.7-0.3,2.3-1
		s1-1.5,1.2-2.4l0-0.2c0.2-1,0.1-1.8-0.3-2.5S22.6,44.5,21.6,44.5z"/>
	<path class="st0" d="M31.5,49.2l0.2,1.2l0.1,0l3.9-7h2.2l-6.4,10.7c-0.4,0.6-0.9,1.2-1.5,1.6s-1.3,0.7-2.2,0.7c-0.2,0-0.4,0-0.6,0
		c-0.2,0-0.4-0.1-0.6-0.1l0.4-1.3c0,0,0.1,0,0.4,0c0.3,0,0.4,0,0.5,0c0.4,0,0.8-0.2,1.1-0.5c0.3-0.3,0.6-0.7,0.9-1l0.7-1L28,43.4
		h2.2L31.5,49.2z"/>
	<path class="st0" d="M46.8,52.7h-2l0.6-3.3c-0.4,0.1-0.8,0.1-1.2,0.2c-0.4,0-0.8,0.1-1.3,0.1c-1.3,0-2.2-0.3-2.9-0.9
		c-0.7-0.6-0.9-1.5-0.7-2.6l0.5-2.7h2l-0.5,2.7c-0.1,0.8-0.1,1.3,0.3,1.7c0.3,0.3,0.8,0.5,1.6,0.5c0.4,0,0.8,0,1.3-0.1
		c0.4,0,0.8-0.1,1.2-0.2l0.8-4.6h2L46.8,52.7z"/>
	<path class="st0" d="M54.5,52.9c-1.5,0-2.6-0.4-3.4-1.3c-0.8-0.9-1-2-0.8-3.4l0.1-0.4c0.2-1.4,0.9-2.5,1.9-3.4
		c1-0.8,2.2-1.3,3.5-1.3c1.4,0,2.4,0.4,3,1.2c0.6,0.8,0.8,1.8,0.6,3.1l-0.2,0.9h-7c-0.2,1,0,1.8,0.3,2.3c0.4,0.6,1.1,0.9,2.1,0.9
		c0.6,0,1.2-0.1,1.8-0.3c0.6-0.2,1-0.4,1.4-0.7l0.6,1.1c-0.4,0.3-1,0.6-1.7,0.8C56.2,52.8,55.4,52.9,54.5,52.9z M55.6,44.5
		c-0.7,0-1.3,0.2-1.8,0.7c-0.5,0.5-0.9,1-1.2,1.7l0,0.1h4.9l0-0.1c0.1-0.7,0-1.3-0.3-1.7C57,44.8,56.4,44.5,55.6,44.5z"/>
	<path class="st0" d="M70,52.7h-2l0.7-4h-4.8l-0.7,4h-2l1.6-9.3h2l-0.7,4h4.8l0.7-4h2L70,52.7z"/>
	<path class="st0" d="M81.7,43.4h2L82,52.7h-2l1.1-6.6l-0.1,0l-6,6.6h-2l1.6-9.3h2L75.7,50l0.1,0L81.7,43.4z"/>
	<path class="st0" d="M89.8,52.9c-1.5,0-2.6-0.4-3.4-1.3c-0.8-0.9-1-2-0.8-3.4l0.1-0.4c0.2-1.4,0.9-2.5,1.9-3.4
		c1-0.8,2.2-1.3,3.5-1.3c1.4,0,2.4,0.4,3,1.2c0.6,0.8,0.8,1.8,0.6,3.1l-0.2,0.9h-7c-0.2,1,0,1.8,0.3,2.3c0.4,0.6,1.1,0.9,2.1,0.9
		c0.6,0,1.2-0.1,1.8-0.3c0.6-0.2,1-0.4,1.4-0.7l0.6,1.1c-0.4,0.3-1,0.6-1.7,0.8C91.5,52.8,90.7,52.9,89.8,52.9z M90.9,44.5
		c-0.7,0-1.3,0.2-1.8,0.7c-0.5,0.5-0.9,1-1.2,1.7l0,0.1h4.9l0-0.1c0.1-0.7,0-1.3-0.3-1.7C92.3,44.8,91.7,44.5,90.9,44.5z"/>
	<path class="st0" d="M107.2,44.5c-0.6,0-1.2,0.2-1.7,0.5c-0.6,0.4-0.9,0.8-1,1.3h-1.8l0-0.1c0.1-0.8,0.6-1.6,1.6-2.2
		c1-0.6,2-0.9,3.1-0.9c1.4,0,2.5,0.5,3.2,1.4c0.7,0.9,1,2,0.7,3.3l-0.1,0.4c-0.2,1.4-0.9,2.5-1.9,3.3s-2.2,1.3-3.7,1.3
		c-1.2,0-2.1-0.3-2.8-1c-0.7-0.6-1-1.4-0.8-2.4l0,0h1.8c-0.1,0.6,0,1.1,0.4,1.5c0.4,0.4,0.9,0.6,1.6,0.6c0.8,0,1.5-0.3,2.1-0.9
		c0.6-0.6,1-1.2,1.2-2l0-0.1h-3.9l0.2-1.3h3.9c0-0.8-0.1-1.5-0.5-2C108.6,44.8,108,44.5,107.2,44.5z"/>
	<path class="st0" d="M116.5,47.3h2.1c0.7,0,1.3-0.1,1.7-0.4c0.4-0.2,0.7-0.6,0.7-1c0.1-0.4-0.1-0.7-0.4-1c-0.4-0.3-0.9-0.4-1.7-0.4
		c-0.7,0-1.2,0.1-1.8,0.4c-0.5,0.3-0.8,0.6-0.9,1h-1.9l0-0.1c0.1-0.8,0.6-1.5,1.5-2c0.9-0.5,2-0.7,3.2-0.7c1.3,0,2.3,0.2,3,0.7
		c0.7,0.5,1,1.1,0.9,2c-0.1,0.4-0.3,0.8-0.7,1.2c-0.4,0.3-0.9,0.6-1.5,0.8c0.6,0.2,1.1,0.5,1.4,0.8c0.3,0.4,0.4,0.8,0.3,1.3
		c-0.2,0.9-0.7,1.6-1.6,2.1c-0.9,0.5-2.1,0.7-3.4,0.7c-1.2,0-2.2-0.2-3-0.7c-0.8-0.5-1.1-1.2-0.9-2.1l0-0.1h1.9
		c-0.1,0.5,0.1,0.8,0.5,1.1c0.4,0.3,1,0.5,1.8,0.5c0.7,0,1.4-0.1,1.9-0.4c0.5-0.3,0.8-0.6,0.9-1.1c0.1-0.5-0.1-0.9-0.4-1.1
		c-0.4-0.2-1-0.3-1.8-0.3h-2.1l0.1-0.4l0.1-0.6l0,0L116.5,47.3z"/>
	<path class="st0" d="M125.2,48c0.2-1.4,0.9-2.6,1.9-3.4s2.3-1.3,3.8-1.3c1.4,0,2.5,0.4,3.3,1.3c0.7,0.9,1,2,0.8,3.4l0,0.2
		c-0.3,1.4-0.9,2.6-1.9,3.4c-1,0.9-2.3,1.3-3.8,1.3c-1.4,0-2.5-0.4-3.3-1.3c-0.7-0.9-1-2-0.8-3.4L125.2,48z M127.2,48.1
		c-0.2,1-0.1,1.8,0.3,2.5c0.4,0.6,1,0.9,2,0.9c0.9,0,1.7-0.3,2.3-1c0.6-0.7,1-1.5,1.2-2.4l0-0.2c0.2-1,0.1-1.8-0.3-2.5
		c-0.4-0.6-1-0.9-2-0.9c-0.9,0-1.7,0.3-2.3,1c-0.6,0.7-1,1.5-1.2,2.4L127.2,48.1z"/>
	<path class="st0" d="M146.5,44.7h-3.6l-1.4,8h-2l1.4-8h-3.5l0.2-1.3h9.1L146.5,44.7z"/>
	<path class="st0" d="M151.9,52.9c-1.5,0-2.6-0.4-3.4-1.3c-0.8-0.9-1-2-0.8-3.4l0.1-0.4c0.2-1.4,0.9-2.5,1.9-3.4
		c1-0.8,2.2-1.3,3.5-1.3c1.4,0,2.4,0.4,3,1.2c0.6,0.8,0.8,1.8,0.6,3.1l-0.2,0.9h-7c-0.2,1,0,1.8,0.3,2.3c0.4,0.6,1.1,0.9,2.1,0.9
		c0.6,0,1.2-0.1,1.8-0.3c0.6-0.2,1-0.4,1.4-0.7l0.6,1.1c-0.4,0.3-1,0.6-1.7,0.8S152.8,52.9,151.9,52.9z M153,44.5
		c-0.7,0-1.3,0.2-1.8,0.7c-0.5,0.5-0.9,1-1.2,1.7l0,0.1h4.9l0-0.1c0.1-0.7,0-1.3-0.3-1.7C154.4,44.8,153.9,44.5,153,44.5z"/>
	<path class="st0" d="M168.6,48.4c-0.2,1.4-0.8,2.5-1.7,3.3c-0.9,0.8-2,1.2-3.3,1.2c-0.6,0-1.2-0.1-1.7-0.3
		c-0.5-0.2-0.9-0.5-1.2-0.9l-0.8,4.6h-2l2.2-12.9h1.5l0.1,1.2c0.4-0.4,0.9-0.8,1.5-1s1.2-0.4,1.9-0.4c1.3,0,2.2,0.5,2.8,1.4
		c0.6,0.9,0.8,2.1,0.5,3.6L168.6,48.4z M166.6,48.2c0.2-1.1,0.1-2-0.3-2.6c-0.4-0.7-1-1-2-1c-0.5,0-1,0.1-1.5,0.3
		c-0.4,0.2-0.8,0.5-1.2,0.9l-0.8,4.5c0.2,0.4,0.5,0.7,0.8,0.9c0.4,0.2,0.8,0.3,1.4,0.3c0.9,0,1.6-0.3,2.3-0.9c0.6-0.6,1-1.3,1.1-2.3
		L166.6,48.2z"/>
	<path class="st0" d="M179.1,43.4h2l-1.6,9.3h-2l1.1-6.6l-0.1,0l-6,6.6h-2l1.6-9.3h2l-1.2,6.6l0.1,0L179.1,43.4z"/>
	<path class="st0" d="M191.2,52.7h-2l0.6-3.3c-0.4,0.1-0.8,0.1-1.2,0.2c-0.4,0-0.8,0.1-1.3,0.1c-1.3,0-2.2-0.3-2.9-0.9
		c-0.7-0.6-0.9-1.5-0.7-2.6l0.5-2.7h2l-0.5,2.7c-0.1,0.8-0.1,1.3,0.3,1.7c0.3,0.3,0.8,0.5,1.6,0.5c0.4,0,0.8,0,1.3-0.1
		c0.4,0,0.8-0.1,1.2-0.2l0.8-4.6h2L191.2,52.7z"/>
	<path class="st0" d="M198.9,52.9c-1.5,0-2.6-0.4-3.4-1.3c-0.8-0.9-1-2-0.8-3.4l0.1-0.4c0.2-1.4,0.9-2.5,1.9-3.4
		c1-0.8,2.2-1.3,3.5-1.3c1.4,0,2.4,0.4,3,1.2s0.8,1.8,0.6,3.1l-0.2,0.9h-7c-0.2,1,0,1.8,0.3,2.3c0.4,0.6,1.1,0.9,2.1,0.9
		c0.6,0,1.2-0.1,1.8-0.3c0.6-0.2,1-0.4,1.4-0.7l0.6,1.1c-0.4,0.3-1,0.6-1.7,0.8C200.6,52.8,199.8,52.9,198.9,52.9z M200.1,44.5
		c-0.7,0-1.3,0.2-1.8,0.7c-0.5,0.5-0.9,1-1.2,1.7l0,0.1h4.9l0-0.1c0.1-0.7,0-1.3-0.3-1.7C201.5,44.8,200.9,44.5,200.1,44.5z"/>
	<path class="st0" d="M210.1,51.6c0.6,0,1.1-0.2,1.7-0.5c0.5-0.3,0.8-0.8,0.9-1.3h1.8l0,0.1c-0.1,0.8-0.6,1.6-1.6,2.2
		c-0.9,0.6-1.9,0.9-3.1,0.9c-1.5,0-2.5-0.4-3.2-1.3c-0.7-0.9-0.9-2-0.7-3.3l0.1-0.4c0.2-1.4,0.8-2.5,1.8-3.3c1-0.9,2.2-1.3,3.8-1.3
		c1.2,0,2.1,0.3,2.8,1s0.9,1.4,0.7,2.4l0,0h-1.8c0.1-0.6,0-1.1-0.4-1.5c-0.4-0.4-0.9-0.6-1.5-0.6c-0.9,0-1.7,0.3-2.3,1
		c-0.6,0.7-0.9,1.4-1.1,2.3l-0.1,0.4c-0.2,1-0.1,1.8,0.2,2.4S209.1,51.6,210.1,51.6z"/>
	<path class="st0" d="M220.5,48.7h-1l-0.7,4h-2l1.6-9.3h2l-0.7,3.9h0.9l4.6-3.9h2.3l0,0.1l-5.3,4.4l4.1,4.8h-2.5L220.5,48.7z"/>
	<path class="st0" d="M236.8,43.4h2l-1.6,9.3h-2l1.1-6.6l-0.1,0l-6,6.6h-2l1.6-9.3h2l-1.2,6.6l0.1,0L236.8,43.4z"/>
	<path class="st0" d="M247,50.5L247,50.5l4.8-7.1h2.5l-1.6,9.3h-2l1.1-6.5l-0.1,0l-4.5,6.5H246l-2.2-6.6l-0.1,0l-1.2,6.6h-2l1.6-9.3
		h2.5L247,50.5z"/>
	<path class="st0" d="M270.5,52.7h-2l1.4-8H265l-1.4,8h-2l1.6-9.3h8.8L270.5,52.7z"/>
	<path class="st0" d="M283.8,48.4c-0.2,1.4-0.8,2.5-1.7,3.3c-0.9,0.8-2,1.2-3.3,1.2c-0.6,0-1.2-0.1-1.7-0.3
		c-0.5-0.2-0.9-0.5-1.2-0.9l-0.8,4.6h-2l2.2-12.9h1.5l0.1,1.2c0.4-0.4,0.9-0.8,1.5-1c0.6-0.2,1.2-0.4,1.9-0.4c1.3,0,2.2,0.5,2.8,1.4
		c0.6,0.9,0.8,2.1,0.5,3.6L283.8,48.4z M281.8,48.2c0.2-1.1,0.1-2-0.3-2.6c-0.4-0.7-1-1-2-1c-0.5,0-1,0.1-1.5,0.3
		c-0.4,0.2-0.8,0.5-1.2,0.9l-0.8,4.5c0.2,0.4,0.5,0.7,0.8,0.9c0.4,0.2,0.8,0.3,1.4,0.3c0.9,0,1.6-0.3,2.3-0.9c0.6-0.6,1-1.3,1.1-2.3
		L281.8,48.2z"/>
	<path class="st0" d="M292.5,52.7c0-0.3,0-0.6,0-0.8c0-0.2,0-0.4,0-0.6c-0.4,0.4-1,0.8-1.6,1.1c-0.6,0.3-1.3,0.5-2,0.5
		c-1.1,0-1.9-0.3-2.4-0.8c-0.5-0.5-0.7-1.2-0.6-2c0.2-0.9,0.7-1.6,1.6-2.1c0.9-0.5,2.1-0.7,3.6-0.7h2.1l0.2-0.9c0.1-0.6,0-1-0.3-1.3
		c-0.3-0.3-0.9-0.5-1.6-0.5c-0.6,0-1.1,0.1-1.6,0.4c-0.5,0.3-0.7,0.6-0.8,1l-1.9,0l0-0.1c0.1-0.7,0.6-1.3,1.4-1.9
		c0.9-0.5,1.9-0.8,3.2-0.8c1.2,0,2.1,0.3,2.8,0.8c0.7,0.5,0.9,1.3,0.8,2.3l-0.8,4.5c-0.1,0.3-0.1,0.7-0.1,1c0,0.3,0,0.6,0.1,0.9
		H292.5z M289.4,51.5c0.7,0,1.3-0.2,2-0.5c0.6-0.3,1.1-0.7,1.3-1.1l0.3-1.5h-2.2c-0.8,0-1.4,0.2-2,0.5c-0.6,0.4-0.9,0.8-0.9,1.2
		c-0.1,0.4,0,0.8,0.3,1S288.8,51.5,289.4,51.5z"/>
	<path class="st0" d="M301.3,48.7h-1l-0.7,4h-2l1.6-9.3h2l-0.7,3.9h0.9l4.6-3.9h2.3l0,0.1l-5.3,4.4l4.1,4.8h-2.5L301.3,48.7z"/>
	<path class="st0" d="M318.9,44.7h-3.6l-1.4,8h-2l1.4-8h-3.5l0.2-1.3h9.1L318.9,44.7z"/>
	<path class="st0" d="M328.5,43.4h2l-1.6,9.3h-2l1.1-6.6l-0.1,0l-6,6.6h-2l1.6-9.3h2l-1.2,6.6l0.1,0L328.5,43.4z"/>
	<path class="st0" d="M335.9,48.7h-1l-0.7,4h-2l1.6-9.3h2l-0.7,3.9h0.9l4.6-3.9h2.3l0,0.1l-5.3,4.4l4.1,4.8h-2.5L335.9,48.7z"/>
	<path class="st0" d="M350.4,52.7c0-0.3,0-0.6,0-0.8c0-0.2,0-0.4,0-0.6c-0.4,0.4-1,0.8-1.6,1.1c-0.6,0.3-1.3,0.5-2,0.5
		c-1.1,0-1.9-0.3-2.4-0.8c-0.5-0.5-0.7-1.2-0.6-2c0.2-0.9,0.7-1.6,1.6-2.1c0.9-0.5,2.1-0.7,3.6-0.7h2.1l0.2-0.9c0.1-0.6,0-1-0.3-1.3
		c-0.3-0.3-0.9-0.5-1.6-0.5c-0.6,0-1.1,0.1-1.6,0.4c-0.5,0.3-0.7,0.6-0.8,1l-1.9,0l0-0.1c0.1-0.7,0.6-1.3,1.4-1.9
		c0.9-0.5,1.9-0.8,3.2-0.8c1.2,0,2.1,0.3,2.8,0.8c0.7,0.5,0.9,1.3,0.8,2.3l-0.8,4.5c-0.1,0.3-0.1,0.7-0.1,1c0,0.3,0,0.6,0.1,0.9
		H350.4z M347.4,51.5c0.7,0,1.3-0.2,2-0.5c0.6-0.3,1.1-0.7,1.3-1.1l0.3-1.5h-2.2c-0.8,0-1.4,0.2-2,0.5c-0.6,0.4-0.9,0.8-0.9,1.2
		c-0.1,0.4,0,0.8,0.3,1C346.3,51.3,346.8,51.5,347.4,51.5z"/>
	<path class="st0" d="M362,50.5L362,50.5l4.8-7.1h2.5l-1.6,9.3h-2l1.1-6.5l-0.1,0l-4.5,6.5H361l-2.2-6.6l-0.1,0l-1.2,6.6h-2l1.6-9.3
		h2.5L362,50.5z"/>
</g>
</svg>
